<svg width="182" height="128" viewBox="0 0 182 128" fill="none" xmlns="http://www.w3.org/2000/svg">
<path d="M62.932 120.41H63.842C63.9727 120.802 64.1687 121.143 64.43 121.432C65.0273 122.104 65.8347 122.44 66.852 122.44C67.7293 122.44 68.4013 122.253 68.868 121.88C69.344 121.507 69.582 121.04 69.582 120.48C69.582 120.331 69.5633 120.195 69.526 120.074C69.498 119.953 69.442 119.836 69.358 119.724C69.274 119.612 69.1947 119.519 69.12 119.444C69.0547 119.36 68.9427 119.276 68.784 119.192C68.6253 119.099 68.4993 119.029 68.406 118.982C68.322 118.935 68.1727 118.875 67.958 118.8C67.7433 118.716 67.5893 118.66 67.496 118.632C67.4027 118.604 67.23 118.553 66.978 118.478C66.726 118.394 66.558 118.338 66.474 118.31C66.1007 118.207 65.788 118.109 65.536 118.016C65.284 117.923 65.0087 117.801 64.71 117.652C64.4113 117.493 64.1687 117.325 63.982 117.148C63.8047 116.971 63.6553 116.747 63.534 116.476C63.4127 116.205 63.352 115.907 63.352 115.58C63.352 114.852 63.66 114.227 64.276 113.704C64.892 113.181 65.704 112.92 66.712 112.92C68.0373 112.92 69.0593 113.354 69.778 114.222C70.086 114.595 70.3007 115.025 70.422 115.51H69.512C69.4093 115.183 69.2413 114.894 69.008 114.642C68.4573 114.054 67.692 113.76 66.712 113.76C65.9373 113.76 65.3353 113.937 64.906 114.292C64.4767 114.637 64.262 115.067 64.262 115.58C64.262 116.224 64.696 116.733 65.564 117.106C65.8533 117.237 66.46 117.437 67.384 117.708C67.7667 117.829 68.0747 117.937 68.308 118.03C68.5507 118.114 68.826 118.24 69.134 118.408C69.442 118.567 69.68 118.735 69.848 118.912C70.0253 119.089 70.1747 119.313 70.296 119.584C70.4267 119.855 70.492 120.153 70.492 120.48C70.492 121.255 70.1607 121.917 69.498 122.468C68.8447 123.009 67.9627 123.28 66.852 123.28C65.452 123.28 64.3787 122.804 63.632 121.852C63.3053 121.423 63.072 120.942 62.932 120.41ZM72.4487 123V113.2H79.0987V114.04H73.3587V117.61H78.0487V118.45H73.3587V122.16H79.0987V123H72.4487ZM80.8536 123V116H81.6936V117.33H81.7076C81.829 117.069 81.9923 116.835 82.1976 116.63C82.6643 116.163 83.2663 115.93 84.0036 115.93H84.7736V116.7H84.0036C83.3316 116.7 82.7763 116.929 82.3376 117.386C81.9083 117.834 81.6936 118.422 81.6936 119.15V123H80.8536ZM85.2653 116H86.1753L87.8553 122.23H89.3253L91.0053 116H91.9153L89.9553 123H87.2253L85.2653 116ZM93.3628 114.348C93.2414 114.227 93.1808 114.077 93.1808 113.9C93.1808 113.723 93.2414 113.573 93.3628 113.452C93.4841 113.331 93.6334 113.27 93.8108 113.27C93.9881 113.27 94.1374 113.331 94.2588 113.452C94.3801 113.573 94.4408 113.723 94.4408 113.9C94.4408 114.077 94.3801 114.227 94.2588 114.348C94.1374 114.469 93.9881 114.53 93.8108 114.53C93.6334 114.53 93.4841 114.469 93.3628 114.348ZM93.3908 123V116H94.2308V123H93.3908ZM96.9709 122.104C96.3083 121.404 95.9769 120.536 95.9769 119.5C95.9769 118.464 96.3083 117.601 96.9709 116.91C97.6429 116.21 98.4549 115.86 99.4069 115.86C100.518 115.86 101.4 116.271 102.053 117.092C102.342 117.447 102.557 117.853 102.697 118.31H101.857C101.726 117.983 101.554 117.703 101.339 117.47C100.854 116.91 100.21 116.63 99.4069 116.63C98.6976 116.63 98.0863 116.905 97.5729 117.456C97.0689 117.997 96.8169 118.679 96.8169 119.5C96.8169 120.321 97.0689 121.007 97.5729 121.558C98.0863 122.099 98.6976 122.37 99.4069 122.37C100.219 122.37 100.882 122.067 101.395 121.46C101.638 121.18 101.815 120.877 101.927 120.55H102.767C102.627 121.026 102.408 121.46 102.109 121.852C101.4 122.711 100.499 123.14 99.4069 123.14C98.4549 123.14 97.6429 122.795 96.9709 122.104ZM104.969 122.104C104.297 121.413 103.961 120.545 103.961 119.5C103.961 118.455 104.297 117.587 104.969 116.896C105.641 116.205 106.472 115.86 107.461 115.86C108.441 115.86 109.267 116.205 109.939 116.896C110.621 117.577 110.961 118.422 110.961 119.43V119.78H104.801C104.839 120.517 105.109 121.133 105.613 121.628C106.117 122.123 106.733 122.37 107.461 122.37C108.264 122.37 108.922 122.113 109.435 121.6C109.678 121.376 109.86 121.119 109.981 120.83H110.821C110.653 121.269 110.415 121.656 110.107 121.992C109.417 122.757 108.535 123.14 107.461 123.14C106.472 123.14 105.641 122.795 104.969 122.104ZM104.801 119.01H110.051C109.977 118.329 109.697 117.764 109.211 117.316C108.735 116.859 108.152 116.63 107.461 116.63C106.771 116.63 106.183 116.854 105.697 117.302C105.212 117.75 104.913 118.319 104.801 119.01ZM112.149 120.9H113.059C113.18 121.199 113.339 121.446 113.535 121.642C113.983 122.127 114.594 122.37 115.369 122.37C116.004 122.37 116.475 122.258 116.783 122.034C117.1 121.801 117.259 121.493 117.259 121.11C117.259 120.905 117.198 120.727 117.077 120.578C116.956 120.419 116.76 120.289 116.489 120.186C116.228 120.083 115.99 120.004 115.775 119.948C115.57 119.892 115.271 119.822 114.879 119.738C114.422 119.654 114.03 119.547 113.703 119.416C113.386 119.285 113.106 119.08 112.863 118.8C112.62 118.511 112.499 118.161 112.499 117.75C112.499 117.237 112.728 116.793 113.185 116.42C113.652 116.047 114.286 115.86 115.089 115.86C116.097 115.86 116.895 116.201 117.483 116.882C117.735 117.171 117.917 117.507 118.029 117.89H117.119C117.016 117.638 116.881 117.428 116.713 117.26C116.293 116.84 115.752 116.63 115.089 116.63C114.529 116.63 114.095 116.742 113.787 116.966C113.488 117.181 113.339 117.442 113.339 117.75C113.339 117.918 113.386 118.072 113.479 118.212C113.572 118.343 113.684 118.455 113.815 118.548C113.946 118.632 114.128 118.711 114.361 118.786C114.604 118.861 114.814 118.921 114.991 118.968C115.178 119.005 115.42 119.052 115.719 119.108C116.055 119.183 116.349 119.267 116.601 119.36C116.862 119.444 117.11 119.565 117.343 119.724C117.586 119.873 117.772 120.065 117.903 120.298C118.034 120.531 118.099 120.802 118.099 121.11C118.099 121.698 117.861 122.183 117.385 122.566C116.918 122.949 116.246 123.14 115.369 123.14C114.249 123.14 113.381 122.767 112.765 122.02C112.476 121.693 112.27 121.32 112.149 120.9Z" fill="white"/>
<rect x="91.0139" y="43" width="1" height="50.5121" fill="white"/>
<rect x="111.014" y="61.8182" width="0.990433" height="40" transform="rotate(90 111.014 61.8182)" fill="white"/>
<rect width="0.995228" height="39.8091" transform="matrix(0.710497 0.7037 -0.710497 0.7037 105.156 48.8018)" fill="white"/>
<rect width="0.995228" height="39.8091" transform="matrix(-0.710497 0.7037 -0.710497 -0.7037 105.863 76.1151)" fill="white"/>
<path d="M87.0139 89.5503L91.5066 94L95.9992 89.5503" stroke="white"/>
<path d="M10.4087 84.6845L10.5203 83.7814C10.9253 83.6998 11.2875 83.547 11.6067 83.3231C12.3468 82.8127 12.7793 82.0527 12.9041 81.043C13.0116 80.1723 12.9088 79.4825 12.5955 78.9736C12.2834 78.4554 11.8494 78.1619 11.2936 78.0933C11.1454 78.075 11.0088 78.0769 10.8838 78.0991C10.76 78.112 10.6373 78.1532 10.5159 78.2229C10.3944 78.2925 10.2921 78.3598 10.2088 78.4247C10.1174 78.4793 10.0203 78.5801 9.91749 78.7273C9.80541 78.8733 9.72048 78.9898 9.66272 79.0767C9.60611 79.1543 9.52759 79.2951 9.42716 79.499C9.31747 79.7017 9.24301 79.8477 9.20377 79.9369C9.16454 80.0261 9.09242 80.1912 8.98742 80.4321C8.87315 80.6719 8.79697 80.8318 8.75888 80.9117C8.61121 81.2696 8.47561 81.5679 8.35208 81.8066C8.22855 82.0452 8.07436 82.3036 7.88953 82.5817C7.69544 82.8587 7.49895 83.0789 7.30007 83.2424C7.10232 83.3967 6.8617 83.5174 6.5782 83.6046C6.2947 83.6919 5.99085 83.7154 5.66664 83.6754C4.94414 83.5861 4.36129 83.2038 3.91811 82.5283C3.47493 81.8529 3.31514 81.0149 3.43874 80.0146C3.60127 78.6992 4.15731 77.7382 5.10689 77.1314C5.51518 76.8715 5.96759 76.7111 6.46414 76.6502L6.35255 77.5533C6.01576 77.6151 5.70801 77.7464 5.4293 77.947C4.77821 78.4215 4.39258 79.145 4.2724 80.1176C4.17741 80.8864 4.27958 81.5056 4.57893 81.9752C4.86901 82.4436 5.26878 82.7093 5.77823 82.7723C6.41737 82.8512 6.97542 82.4829 7.45238 81.6672C7.61754 81.3961 7.89108 80.8186 8.27301 79.9348C8.44036 79.5699 8.58465 79.2773 8.70589 79.0572C8.81901 78.8267 8.97783 78.5689 9.18233 78.2838C9.37757 77.9976 9.57348 77.782 9.77008 77.637C9.96782 77.4827 10.2084 77.362 10.4919 77.2748C10.7766 77.1783 11.081 77.1501 11.4052 77.1901C12.174 77.2851 12.7911 77.6952 13.2563 78.4204C13.7135 79.1352 13.8739 80.0437 13.7377 81.146C13.566 82.5355 12.962 83.5423 11.9256 84.1666C11.4595 84.4382 10.9538 84.6108 10.4087 84.6845Z" fill="white"/>
<path d="M14.4988 69.4288C13.2652 70.0311 11.94 70.0964 10.5232 69.6244C9.10643 69.1525 8.08504 68.3057 7.45907 67.0839C6.8331 65.8621 6.74723 64.5694 7.20146 63.2057C7.69699 61.7181 8.65304 60.6937 10.0696 60.1326C10.6894 59.8964 11.3416 59.7841 12.0264 59.7957L11.7388 60.6591C11.2105 60.6799 10.7058 60.7921 10.2248 60.9959C9.13282 61.4684 8.3907 62.2935 7.99841 63.4712C7.61792 64.6135 7.68603 65.6789 8.20275 66.6676C8.71946 67.6562 9.58882 68.354 10.8108 68.7611C12.0328 69.1681 13.147 69.131 14.1533 68.6497C15.1597 68.1684 15.8531 67.3566 16.2336 66.2143C16.6347 65.01 16.5105 63.8767 15.861 62.8143C15.5805 62.3569 15.21 61.9482 14.7495 61.5882L15.0371 60.7248C15.6274 61.1379 16.1145 61.6395 16.4983 62.2297C17.3605 63.54 17.5378 64.9567 17.0305 66.4797C16.5763 67.8434 15.7324 68.8264 14.4988 69.4288Z" fill="white"/>
<path d="M21.5054 54.8952L13.0328 49.9702L15.0732 46.4602C15.6079 45.5403 16.2697 44.9588 17.0588 44.7157C17.8444 44.4599 18.6246 44.5571 19.3992 45.0074C20.0609 45.392 20.5068 45.9157 20.7369 46.5785C20.9717 47.2331 20.9392 47.9484 20.6394 48.7241L25.2343 48.4802L24.7066 49.388L20.2074 49.6065L18.6947 52.2088L21.9627 54.1085L21.5054 54.8952ZM17.9685 51.7867L19.5515 49.0634C19.969 48.3452 20.1219 47.7108 20.0102 47.16C19.8951 46.5966 19.539 46.1413 18.9419 45.7942C18.3448 45.4471 17.7769 45.3653 17.2384 45.5489C16.6965 45.7197 16.2168 46.1642 15.7994 46.8823L14.2164 49.6056L17.9685 51.7867Z" fill="white"/>
<path d="M29.2715 40.8892C27.9001 40.9499 26.6587 40.4814 25.5475 39.4838C24.4362 38.4863 23.8371 37.3025 23.75 35.9324C23.6629 34.5624 24.0995 33.3426 25.0597 32.273C26.0198 31.2034 27.1856 30.6383 28.5571 30.5776C29.9285 30.5169 31.1699 30.9853 32.2811 31.9829C33.3924 32.9805 33.9915 34.1643 34.0786 35.5343C34.1657 36.9044 33.7291 38.1242 32.7689 39.1937C31.8088 40.2633 30.643 40.8285 29.2715 40.8892ZM24.598 35.8471C24.6778 36.9597 25.1969 37.9463 26.1554 38.8067C27.1138 39.6671 28.1504 40.0772 29.2652 40.0369C30.38 39.9966 31.3396 39.5285 32.1439 38.6326C32.9482 37.7367 33.3104 36.7324 33.2306 35.6197C33.1508 34.507 32.6317 33.5205 31.6732 32.6601C30.7148 31.7997 29.6782 31.3896 28.5634 31.4298C27.4486 31.4701 26.489 31.9382 25.6847 32.8342C24.8804 33.7301 24.5182 34.7344 24.598 35.8471Z" fill="white"/>
<path d="M41.5197 30.3834L35.6119 22.5643L36.338 22.0158L41.7394 29.1646L45.9841 25.9575L46.4904 26.6277L41.5197 30.3834Z" fill="white"/>
<path d="M52.1954 23.0948L47.6657 14.4045L48.4727 13.9838L52.6141 21.9293L57.3317 19.4704L57.72 20.2152L52.1954 23.0948Z" fill="white"/>
<path d="M69.6913 6.50406L69.5308 5.67952L77.2952 4.16861L77.4556 4.99315L74.0201 5.66169L75.7316 14.4567L74.8383 14.6305L73.1268 5.83551L69.6913 6.50406Z" fill="white"/>
<path d="M87.1611 11.8235C86.206 10.8373 85.7333 9.59762 85.7429 8.10432C85.7524 6.61102 86.241 5.37745 87.2086 4.40363C88.1762 3.42981 89.3787 2.9475 90.816 2.95671C92.2533 2.96592 93.4494 3.46359 94.4045 4.44973C95.3595 5.43587 95.8322 6.67559 95.8227 8.16889C95.8131 9.6622 95.3245 10.8958 94.3569 11.8696C93.3893 12.8434 92.1869 13.3257 90.7496 13.3165C89.3123 13.3073 88.1161 12.8096 87.1611 11.8235ZM87.8349 4.98166C87.0551 5.77934 86.6611 6.82217 86.6529 8.11015C86.6446 9.39812 87.0252 10.4459 87.7947 11.2535C88.5643 12.0611 89.551 12.4688 90.755 12.4765C91.9589 12.4842 92.9508 12.0892 93.7306 11.2916C94.5104 10.4939 94.9044 9.45104 94.9127 8.16306C94.9209 6.87509 94.5403 5.8273 93.7708 5.01969C93.0013 4.21207 92.0146 3.80441 90.8106 3.7967C89.6066 3.78898 88.6147 4.18397 87.8349 4.98166Z" fill="white"/>
<path d="M111.887 15.9659L114.973 6.66444L121.285 8.75834L121.02 9.55562L115.572 7.74824L114.448 11.1367L118.9 12.6134L118.635 13.4107L114.184 11.9339L113.016 15.4552L118.464 17.2626L118.199 18.0599L111.887 15.9659Z" fill="white"/>
<path d="M124.077 20.5422L128.759 17.516L128.895 12.0076L129.756 12.4772L129.637 17.5163L130.742 18.12L134.917 15.2947L135.777 15.7643L131.217 18.8576L131.204 24.4331L130.344 23.9635L130.34 18.8573L129.234 18.2536L124.937 21.0118L124.077 20.5422Z" fill="white"/>
<path d="M136.773 28.2086L142.977 20.6223L146.066 23.1482C146.889 23.8218 147.361 24.587 147.48 25.444C147.599 26.3009 147.366 27.0871 146.781 27.8023C146.196 28.5176 145.472 28.902 144.608 28.9553C143.745 29.0087 142.901 28.6987 142.077 28.0251L139.693 26.0753L137.477 28.7847L136.773 28.2086ZM140.225 25.425L142.609 27.3748C143.252 27.9007 143.877 28.1465 144.484 28.1122C145.096 28.0707 145.627 27.7754 146.076 27.2263C146.525 26.6772 146.707 26.1019 146.62 25.5003C146.539 24.8916 146.177 24.3243 145.534 23.7985L143.15 21.8487L140.225 25.425Z" fill="white"/>
<path d="M147.826 38.2256L155.284 31.868L155.874 32.5605L149.056 38.3732L152.507 42.4218L151.868 42.9667L147.826 38.2256Z" fill="white"/>
<path d="M157.278 48.5804C157.659 47.2616 158.5 46.2352 159.8 45.5014C161.101 44.7675 162.414 44.5784 163.74 44.934C165.066 45.2897 166.082 46.0934 166.788 47.3452C167.495 48.597 167.657 49.8823 167.276 51.2011C166.895 52.52 166.054 53.5463 164.754 54.2802C163.453 55.0141 162.14 55.2032 160.814 54.8475C159.488 54.4919 158.472 53.6882 157.766 52.4364C157.059 51.1846 156.897 49.8993 157.278 48.5804ZM163.55 45.7648C162.47 45.4846 161.369 45.6609 160.247 46.2939C159.126 46.9268 158.406 47.7779 158.087 48.847C157.769 49.9161 157.906 50.975 158.497 52.0236C159.089 53.0722 159.925 53.7366 161.004 54.0168C162.084 54.297 163.185 54.1206 164.307 53.4877C165.428 52.8547 166.148 52.0037 166.467 50.9345C166.785 49.8654 166.649 48.8066 166.057 47.758C165.465 46.7094 164.629 46.045 163.55 45.7648Z" fill="white"/>
<path d="M163.353 63.5273L172.689 60.5497L173.923 64.4177C174.246 65.4314 174.233 66.3123 173.884 67.0605C173.547 67.8147 172.951 68.3279 172.098 68.6001C171.368 68.8327 170.681 68.8119 170.035 68.5378C169.392 68.2727 168.884 67.7687 168.51 67.0259L165.607 70.5965L165.288 69.5962L168.145 66.1135L167.231 63.2458L163.629 64.3943L163.353 63.5273ZM168.031 62.9906L168.988 65.9916C169.24 66.783 169.608 67.3221 170.092 67.6088C170.587 67.9016 171.163 67.943 171.821 67.7332C172.479 67.5233 172.921 67.1571 173.146 66.6347C173.383 66.1183 173.375 65.4644 173.123 64.673L172.166 61.6719L168.031 62.9906Z" fill="white"/>
<path d="M167.177 77.9457L176.903 76.744L177.718 83.3438L176.885 83.4468L176.181 77.7501L172.638 78.1879L173.213 82.8425L172.379 82.9455L171.804 78.2909L168.122 78.7458L168.826 84.4425L167.992 84.5455L167.177 77.9457Z" fill="white"/>
</svg>
